<?xml version="1.0" encoding="UTF-8"?>
<svg width="76px" height="19px" viewBox="0 0 76 19" version="1.1" xmlns="http://www.w3.org/2000/svg" xmlns:xlink="http://www.w3.org/1999/xlink">
    <!-- Generator: Sketch 55.2 (78181) - https://sketchapp.com -->
    <title>Animation</title>
    <desc>Created with Sketch.</desc>
    <g id="Page-1" stroke="none" stroke-width="1" fill="none" fill-rule="evenodd">
        <g id="FukkHD-2nd-Copy" transform="translate(-946.000000, -322.000000)" fill="#FFFFFF" fill-rule="nonzero">
            <path d="M949.024,323.2 L952.6,323.2 L955.336,340 L952.696,340 L952.216,336.664 L952.216,336.712 L949.216,336.712 L948.736,340 L946.288,340 L949.024,323.2 Z M951.904,334.432 L950.728,326.128 L950.68,326.128 L949.528,334.432 L951.904,334.432 Z M956.219067,323.2 L959.531067,323.2 L962.099067,333.256 L962.147067,333.256 L962.147067,323.2 L964.499067,323.2 L964.499067,340 L961.787067,340 L958.619067,327.736 L958.571067,327.736 L958.571067,340 L956.219067,340 L956.219067,323.2 Z M966.078135,323.2 L968.718135,323.2 L968.718135,340 L966.078135,340 L966.078135,323.2 Z M970.297202,323.2 L974.065202,323.2 L975.745202,335.224 L975.793202,335.224 L977.473202,323.2 L981.241202,323.2 L981.241202,340 L978.745202,340 L978.745202,327.28 L978.697202,327.28 L976.777202,340 L974.569202,340 L972.649202,327.28 L972.601202,327.28 L972.601202,340 L970.297202,340 L970.297202,323.2 Z M984.86027,323.2 L988.43627,323.2 L991.17227,340 L988.53227,340 L988.05227,336.664 L988.05227,336.712 L985.05227,336.712 L984.57227,340 L982.12427,340 L984.86027,323.2 Z M987.74027,334.432 L986.56427,326.128 L986.51627,326.128 L985.36427,334.432 L987.74027,334.432 Z M993.015337,325.6 L990.255337,325.6 L990.255337,323.2 L998.415337,323.2 L998.415337,325.6 L995.655337,325.6 L995.655337,340 L993.015337,340 L993.015337,325.6 Z M999.298404,323.2 L1001.9384,323.2 L1001.9384,340 L999.298404,340 L999.298404,323.2 Z M1007.33347,340.24 C1006.03747,340.24 1005.04548,339.872004 1004.35747,339.136 C1003.66947,338.399996 1003.32547,337.360007 1003.32547,336.016 L1003.32547,327.184 C1003.32547,325.839993 1003.66947,324.800004 1004.35747,324.064 C1005.04548,323.327996 1006.03747,322.96 1007.33347,322.96 C1008.62948,322.96 1009.62147,323.327996 1010.30947,324.064 C1010.99748,324.800004 1011.34147,325.839993 1011.34147,327.184 L1011.34147,336.016 C1011.34147,337.360007 1010.99748,338.399996 1010.30947,339.136 C1009.62147,339.872004 1008.62948,340.24 1007.33347,340.24 Z M1007.33347,337.84 C1008.24548,337.84 1008.70147,337.288006 1008.70147,336.184 L1008.70147,327.016 C1008.70147,325.911994 1008.24548,325.36 1007.33347,325.36 C1006.42147,325.36 1005.96547,325.911994 1005.96547,327.016 L1005.96547,336.184 C1005.96547,337.288006 1006.42147,337.84 1007.33347,337.84 Z M1012.72854,323.2 L1016.04054,323.2 L1018.60854,333.256 L1018.65654,333.256 L1018.65654,323.2 L1021.00854,323.2 L1021.00854,340 L1018.29654,340 L1015.12854,327.736 L1015.08054,327.736 L1015.08054,340 L1012.72854,340 L1012.72854,323.2 Z" id="Animation"></path>
        </g>
    </g>
</svg>