<?xml version="1.0" encoding="UTF-8"?>
<svg width="54px" height="19px" viewBox="0 0 54 19" version="1.1" xmlns="http://www.w3.org/2000/svg" xmlns:xlink="http://www.w3.org/1999/xlink">
    <!-- Generator: Sketch 55.2 (78181) - https://sketchapp.com -->
    <title>Canvas</title>
    <desc>Created with Sketch.</desc>
    <g id="Page-1" stroke="none" stroke-width="1" fill="none" fill-rule="evenodd">
        <g id="FukkHD-2nd-Copy" transform="translate(-260.000000, -535.000000)" fill="#FFFFFF" fill-rule="nonzero">
            <path d="M264.704,553.24 C263.439994,553.24 262.476003,552.880004 261.812,552.16 C261.147997,551.439996 260.816,550.424007 260.816,549.112 L260.816,540.088 C260.816,538.775993 261.147997,537.760004 261.812,537.04 C262.476003,536.319996 263.439994,535.96 264.704,535.96 C265.968006,535.96 266.931997,536.319996 267.596,537.04 C268.260003,537.760004 268.592,538.775993 268.592,540.088 L268.592,541.864 L266.096,541.864 L266.096,539.92 C266.096,538.879995 265.656004,538.36 264.776,538.36 C263.895996,538.36 263.456,538.879995 263.456,539.92 L263.456,549.304 C263.456,550.328005 263.895996,550.84 264.776,550.84 C265.656004,550.84 266.096,550.328005 266.096,549.304 L266.096,546.736 L268.592,546.736 L268.592,549.112 C268.592,550.424007 268.260003,551.439996 267.596,552.16 C266.931997,552.880004 265.968006,553.24 264.704,553.24 Z M271.827067,536.2 L275.403067,536.2 L278.139067,553 L275.499067,553 L275.019067,549.664 L275.019067,549.712 L272.019067,549.712 L271.539067,553 L269.091067,553 L271.827067,536.2 Z M274.707067,547.432 L273.531067,539.128 L273.483067,539.128 L272.331067,547.432 L274.707067,547.432 Z M279.022135,536.2 L282.334135,536.2 L284.902135,546.256 L284.950135,546.256 L284.950135,536.2 L287.302135,536.2 L287.302135,553 L284.590135,553 L281.422135,540.736 L281.374135,540.736 L281.374135,553 L279.022135,553 L279.022135,536.2 Z M288.185202,536.2 L290.849202,536.2 L292.577202,549.232 L292.625202,549.232 L294.353202,536.2 L296.777202,536.2 L294.233202,553 L290.729202,553 L288.185202,536.2 Z M299.02827,536.2 L302.60427,536.2 L305.34027,553 L302.70027,553 L302.22027,549.664 L302.22027,549.712 L299.22027,549.712 L298.74027,553 L296.29227,553 L299.02827,536.2 Z M301.90827,547.432 L300.73227,539.128 L300.68427,539.128 L299.53227,547.432 L301.90827,547.432 Z M309.583337,553.24 C308.303331,553.24 307.33534,552.876004 306.679337,552.148 C306.023334,551.419996 305.695337,550.376007 305.695337,549.016 L305.695337,548.056 L308.191337,548.056 L308.191337,549.208 C308.191337,550.296005 308.647332,550.84 309.559337,550.84 C310.007339,550.84 310.347336,550.708001 310.579337,550.444 C310.811338,550.179999 310.927337,549.752003 310.927337,549.16 C310.927337,548.455996 310.767339,547.836003 310.447337,547.3 C310.127335,546.763997 309.535341,546.120004 308.671337,545.368 C307.583332,544.407995 306.823339,543.540004 306.391337,542.764 C305.959335,541.987996 305.743337,541.112005 305.743337,540.136 C305.743337,538.807993 306.079334,537.780004 306.751337,537.052 C307.42334,536.323996 308.399331,535.96 309.679337,535.96 C310.943343,535.96 311.899334,536.323996 312.547337,537.052 C313.195337,537.780004 313.519337,538.823993 313.519337,540.184 L313.519337,540.88 L311.023337,540.88 L311.023337,540.016 C311.023337,539.439997 310.911338,539.020001 310.687337,538.756 C310.463336,538.491999 310.135339,538.36 309.703337,538.36 C308.823333,538.36 308.383337,538.895995 308.383337,539.968 C308.383337,540.576003 308.547335,541.143997 308.875337,541.672 C309.203339,542.200003 309.799333,542.839996 310.663337,543.592 C311.767343,544.552005 312.527335,545.423996 312.943337,546.208 C313.359339,546.992004 313.567337,547.911995 313.567337,548.968 C313.567337,550.344007 313.22734,551.399996 312.547337,552.136 C311.867334,552.872004 310.879343,553.24 309.583337,553.24 Z" id="Canvas"></path>
        </g>
    </g>
</svg>