<?xml version="1.0" encoding="UTF-8"?>
<svg width="68px" height="96px" viewBox="0 0 68 96" version="1.1" xmlns="http://www.w3.org/2000/svg" xmlns:xlink="http://www.w3.org/1999/xlink">
    <!-- Generator: Sketch 55.2 (78181) - https://sketchapp.com -->
    <title>css</title>
    <desc>Created with Sketch.</desc>
    <g id="Page-1" stroke="none" stroke-width="1" fill="none" fill-rule="evenodd">
        <g id="FukkHD-2nd-Copy" transform="translate(-878.000000, -520.000000)" fill-rule="nonzero">
            <g id="css" transform="translate(878.000000, 520.000000)">
                <path d="M67.4773333,20.802807 C67.0993216,20.3860585 66.562807,20.1480035 66.0002807,20.1480035 L2.12491228,20.1480035 C1.02250292,20.1431579 0.124818713,21.0327953 0.119921995,22.1352047 C0.119921995,22.2008889 0.122573099,22.266386 0.128748538,22.3316959 L6.11705263,86.2068772 C6.19433918,87.0263392 6.76659649,87.7142456 7.55817544,87.9395556 L35.5035322,95.9240234 C35.6839298,95.9752982 35.8708772,96.0007485 36.058386,95.9998378 C36.2724678,95.9998378 36.4854269,95.9659415 36.6892164,95.9000702 L60.6424327,87.9156023 C61.3937778,87.6655906 61.9261754,86.9952749 61.9997193,86.2068772 L67.9880234,22.3316959 C68.0406082,21.7730994 67.8549708,21.2180585 67.4773333,20.802807 Z" id="Path" fill="#2196F3"></path>
                <g id="Group" transform="translate(14.035088, 36.116959)" fill="#FFFFFF">
                    <path d="M22.0236725,43.9143402 C21.8385965,43.9131696 21.6544561,43.8862222 21.4766784,43.834386 L7.50390643,39.8422456 C6.81805848,39.6470643 6.28846784,39.1006316 6.11461988,38.4089825 L4.11845614,30.4245146 C3.82690058,29.3614035 4.45249123,28.2631111 5.51560234,27.9715556 C6.57871345,27.68 7.67700585,28.3055906 7.9685614,29.3687018 C7.97679532,29.3984561 7.98409357,29.4282105 7.99083041,29.4583392 L9.7074152,36.3248655 L22.0232982,39.8459883 L34.1595322,36.3767018 L37.7525146,3.99588304 L2.06222222,3.99588304 C0.959812865,3.99588304 0.0660584795,3.10212865 0.0660584795,1.9997193 C0.0660584795,0.897309942 0.959812865,0.00351748976 2.06222222,0.00351748976 L39.9882105,0.00351748976 C41.0906199,-0.00318128655 41.989614,0.885146199 41.9963753,1.98755556 C41.9963753,2.06502924 41.9927953,2.14231579 41.9841871,2.21922807 L37.9920468,38.1490526 C37.9014737,38.953731 37.3337076,39.6240468 36.5548538,39.8458012 L22.5820819,43.8379415 C22.4007485,43.8899649 22.2124912,43.9156023 22.0236725,43.9143402 Z" id="Path"></path>
                    <path d="M37.9924211,19.961076 L4.05876023,19.961076 C2.95635088,19.961076 2.06259649,19.0673216 2.06259649,17.9649123 C2.06259649,16.8625029 2.95635088,15.9687485 4.05876023,15.9687485 L37.9924211,15.9687485 C39.0948304,15.9687485 39.9885848,16.8625029 39.9885848,17.9649123 C39.9885848,19.0673216 39.0948304,19.961076 37.9924211,19.961076 Z" id="Path"></path>
                </g>
                <g id="Group" transform="translate(11.976608, 0.000000)" fill="#FFFFFF">
                    <path d="M10.1093801,12.1637427 L2.12491228,12.1637427 C1.02250292,12.1637427 0.128748538,11.2699883 0.128748538,10.1675789 L0.128748538,2.18329825 C0.128935673,1.08088889 1.02250292,0.187134503 2.12491228,0.187134503 L10.1093801,0.187134503 C11.2117895,0.187134503 12.1055439,1.08088889 12.1055439,2.18329825 C12.1055439,3.2857076 11.2117895,4.17946199 10.1093801,4.17946199 L4.12107602,4.17946199 L4.12107602,8.17160234 L10.1093801,8.17160234 C11.2117895,8.17160234 12.1055439,9.06535673 12.1055439,10.1677661 C12.1055439,11.2701754 11.2117895,12.1637427 10.1093801,12.1637427 Z" id="Path"></path>
                    <path d="M26.0781287,12.1637427 L18.0936608,12.1637427 C16.9912515,12.1637427 16.0974971,11.2699883 16.0974971,10.1675789 C16.0974971,9.06516959 16.9912515,8.1714152 18.0936608,8.1714152 L21.2594152,8.1714152 L16.6804211,3.59635088 C15.899883,2.81787135 15.898386,1.55396491 16.6768655,0.773426901 C17.0522573,0.397099415 17.5621988,0.186011696 18.0936608,0.186944271 L26.0781287,0.186944271 C27.180538,0.186944271 28.0742924,1.08070175 28.0742924,2.18311111 C28.0742924,3.28552047 27.180538,4.17927485 26.0781287,4.17927485 L22.9123743,4.17927485 L27.4874386,8.75433918 C28.2679766,9.53281871 28.2694737,10.7967251 27.4909942,11.5772632 C27.116538,11.952655 26.6082807,12.1635556 26.0781287,12.1637427 Z" id="Path"></path>
                    <path d="M42.0470643,12.1637427 L34.0625965,12.1637427 C32.9601871,12.1637427 32.0664327,11.2699883 32.0664327,10.1675789 C32.0664327,9.06516959 32.9601871,8.1714152 34.0625965,8.1714152 L37.2283509,8.1714152 L32.6493567,3.59653801 C31.8688187,2.81805848 31.8673216,1.55415205 32.6458012,0.773614035 C33.021193,0.39728655 33.5311345,0.18619883 34.0625965,0.187131406 L42.0470643,0.187131406 C43.1494737,0.187131406 44.0432281,1.08088889 44.0432281,2.18329825 C44.0432281,3.2857076 43.1494737,4.17946199 42.0470643,4.17946199 L38.8813099,4.17946199 L43.4563743,8.75452632 C44.2369123,9.53300585 44.2384094,10.7969123 43.4599298,11.5774503 C43.0854737,11.952655 42.5770292,12.1635556 42.0470643,12.1637427 Z" id="Path"></path>
                </g>
            </g>
        </g>
    </g>
</svg>