<?xml version="1.0" encoding="UTF-8"?>
<svg width="61px" height="19px" viewBox="0 0 61 19" version="1.1" xmlns="http://www.w3.org/2000/svg" xmlns:xlink="http://www.w3.org/1999/xlink">
    <!-- Generator: Sketch 55.2 (78181) - https://sketchapp.com -->
    <title>cssgrid</title>
    <desc>Created with Sketch.</desc>
    <g id="Page-1" stroke="none" stroke-width="1" fill="none" fill-rule="evenodd">
        <g id="FukkHD-2nd-Copy" transform="translate(-1067.000000, -711.000000)" fill="#FFFFFF" fill-rule="nonzero">
            <path d="M1071.704,729.24 C1070.43999,729.24 1069.476,728.880004 1068.812,728.16 C1068.148,727.439996 1067.816,726.424007 1067.816,725.112 L1067.816,716.088 C1067.816,714.775993 1068.148,713.760004 1068.812,713.04 C1069.476,712.319996 1070.43999,711.96 1071.704,711.96 C1072.96801,711.96 1073.932,712.319996 1074.596,713.04 C1075.26,713.760004 1075.592,714.775993 1075.592,716.088 L1075.592,717.864 L1073.096,717.864 L1073.096,715.92 C1073.096,714.879995 1072.656,714.36 1071.776,714.36 C1070.896,714.36 1070.456,714.879995 1070.456,715.92 L1070.456,725.304 C1070.456,726.328005 1070.896,726.84 1071.776,726.84 C1072.656,726.84 1073.096,726.328005 1073.096,725.304 L1073.096,722.736 L1075.592,722.736 L1075.592,725.112 C1075.592,726.424007 1075.26,727.439996 1074.596,728.16 C1073.932,728.880004 1072.96801,729.24 1071.704,729.24 Z M1080.26707,729.24 C1078.98706,729.24 1078.01907,728.876004 1077.36307,728.148 C1076.70706,727.419996 1076.37907,726.376007 1076.37907,725.016 L1076.37907,724.056 L1078.87507,724.056 L1078.87507,725.208 C1078.87507,726.296005 1079.33106,726.84 1080.24307,726.84 C1080.69107,726.84 1081.03107,726.708001 1081.26307,726.444 C1081.49507,726.179999 1081.61107,725.752003 1081.61107,725.16 C1081.61107,724.455996 1081.45107,723.836003 1081.13107,723.3 C1080.81107,722.763997 1080.21907,722.120004 1079.35507,721.368 C1078.26706,720.407995 1077.50707,719.540004 1077.07507,718.764 C1076.64307,717.987996 1076.42707,717.112005 1076.42707,716.136 C1076.42707,714.807993 1076.76306,713.780004 1077.43507,713.052 C1078.10707,712.323996 1079.08306,711.96 1080.36307,711.96 C1081.62707,711.96 1082.58306,712.323996 1083.23107,713.052 C1083.87907,713.780004 1084.20307,714.823993 1084.20307,716.184 L1084.20307,716.88 L1081.70707,716.88 L1081.70707,716.016 C1081.70707,715.439997 1081.59507,715.020001 1081.37107,714.756 C1081.14707,714.491999 1080.81907,714.36 1080.38707,714.36 C1079.50706,714.36 1079.06707,714.895995 1079.06707,715.968 C1079.06707,716.576003 1079.23107,717.143997 1079.55907,717.672 C1079.88707,718.200003 1080.48306,718.839996 1081.34707,719.592 C1082.45107,720.552005 1083.21107,721.423996 1083.62707,722.208 C1084.04307,722.992004 1084.25107,723.911995 1084.25107,724.968 C1084.25107,726.344007 1083.91107,727.399996 1083.23107,728.136 C1082.55106,728.872004 1081.56307,729.24 1080.26707,729.24 Z M1088.80613,729.24 C1087.52613,729.24 1086.55814,728.876004 1085.90213,728.148 C1085.24613,727.419996 1084.91813,726.376007 1084.91813,725.016 L1084.91813,724.056 L1087.41413,724.056 L1087.41413,725.208 C1087.41413,726.296005 1087.87013,726.84 1088.78213,726.84 C1089.23014,726.84 1089.57013,726.708001 1089.80213,726.444 C1090.03414,726.179999 1090.15013,725.752003 1090.15013,725.16 C1090.15013,724.455996 1089.99014,723.836003 1089.67013,723.3 C1089.35013,722.763997 1088.75814,722.120004 1087.89413,721.368 C1086.80613,720.407995 1086.04614,719.540004 1085.61413,718.764 C1085.18213,717.987996 1084.96613,717.112005 1084.96613,716.136 C1084.96613,714.807993 1085.30213,713.780004 1085.97413,713.052 C1086.64614,712.323996 1087.62213,711.96 1088.90213,711.96 C1090.16614,711.96 1091.12213,712.323996 1091.77013,713.052 C1092.41813,713.780004 1092.74213,714.823993 1092.74213,716.184 L1092.74213,716.88 L1090.24613,716.88 L1090.24613,716.016 C1090.24613,715.439997 1090.13414,715.020001 1089.91013,714.756 C1089.68613,714.491999 1089.35814,714.36 1088.92613,714.36 C1088.04613,714.36 1087.60613,714.895995 1087.60613,715.968 C1087.60613,716.576003 1087.77013,717.143997 1088.09813,717.672 C1088.42614,718.200003 1089.02213,718.839996 1089.88613,719.592 C1090.99014,720.552005 1091.75013,721.423996 1092.16613,722.208 C1092.58214,722.992004 1092.79013,723.911995 1092.79013,724.968 C1092.79013,726.344007 1092.45014,727.399996 1091.77013,728.136 C1091.09013,728.872004 1090.10214,729.24 1088.80613,729.24 Z M1101.10827,729.24 C1099.82826,729.24 1098.85227,728.876004 1098.18027,728.148 C1097.50827,727.419996 1097.17227,726.376007 1097.17227,725.016 L1097.17227,716.184 C1097.17227,714.823993 1097.50827,713.780004 1098.18027,713.052 C1098.85227,712.323996 1099.82826,711.96 1101.10827,711.96 C1102.38828,711.96 1103.36427,712.323996 1104.03627,713.052 C1104.70827,713.780004 1105.04427,714.823993 1105.04427,716.184 L1105.04427,717.624 L1102.54827,717.624 L1102.54827,716.016 C1102.54827,714.911994 1102.09227,714.36 1101.18027,714.36 C1100.26827,714.36 1099.81227,714.911994 1099.81227,716.016 L1099.81227,725.208 C1099.81227,726.296005 1100.26827,726.84 1101.18027,726.84 C1102.09227,726.84 1102.54827,726.296005 1102.54827,725.208 L1102.54827,721.92 L1101.22827,721.92 L1101.22827,719.52 L1105.04427,719.52 L1105.04427,725.016 C1105.04427,726.376007 1104.70827,727.419996 1104.03627,728.148 C1103.36427,728.876004 1102.38828,729.24 1101.10827,729.24 Z M1106.35934,712.2 L1110.27134,712.2 C1111.63134,712.2 1112.62333,712.515997 1113.24734,713.148 C1113.87134,713.780003 1114.18334,714.751993 1114.18334,716.064 L1114.18334,717.096 C1114.18334,718.840009 1113.60734,719.943998 1112.45534,720.408 L1112.45534,720.456 C1113.09534,720.648001 1113.54734,721.039997 1113.81134,721.632 C1114.07534,722.224003 1114.20734,723.015995 1114.20734,724.008 L1114.20734,726.96 C1114.20734,727.440002 1114.22334,727.827999 1114.25534,728.124 C1114.28734,728.420001 1114.36734,728.711999 1114.49534,729 L1111.80734,729 C1111.71134,728.727999 1111.64734,728.472001 1111.61534,728.232 C1111.58334,727.991999 1111.56734,727.560003 1111.56734,726.936 L1111.56734,723.864 C1111.56734,723.095996 1111.44334,722.560002 1111.19534,722.256 C1110.94734,721.951998 1110.51934,721.8 1109.91134,721.8 L1108.99934,721.8 L1108.99934,729 L1106.35934,729 L1106.35934,712.2 Z M1109.95934,719.4 C1110.48734,719.4 1110.88334,719.264001 1111.14734,718.992 C1111.41134,718.719999 1111.54334,718.264003 1111.54334,717.624 L1111.54334,716.328 C1111.54334,715.719997 1111.43534,715.280001 1111.21934,715.008 C1111.00334,714.735999 1110.66334,714.6 1110.19934,714.6 L1108.99934,714.6 L1108.99934,719.4 L1109.95934,719.4 Z M1115.6424,712.2 L1118.2824,712.2 L1118.2824,729 L1115.6424,729 L1115.6424,712.2 Z M1119.86147,712.2 L1123.89347,712.2 C1125.20548,712.2 1126.18947,712.551996 1126.84547,713.256 C1127.50148,713.960004 1127.82947,714.991993 1127.82947,716.352 L1127.82947,724.848 C1127.82947,726.208007 1127.50148,727.239996 1126.84547,727.944 C1126.18947,728.648004 1125.20548,729 1123.89347,729 L1119.86147,729 L1119.86147,712.2 Z M1123.84547,726.6 C1124.27747,726.6 1124.60947,726.472001 1124.84147,726.216 C1125.07347,725.959999 1125.18947,725.544003 1125.18947,724.968 L1125.18947,716.232 C1125.18947,715.655997 1125.07347,715.240001 1124.84147,714.984 C1124.60947,714.727999 1124.27747,714.6 1123.84547,714.6 L1122.50147,714.6 L1122.50147,726.6 L1123.84547,726.6 Z" id="cssgrid"></path>
        </g>
    </g>
</svg>