<?xml version="1.0" encoding="UTF-8"?>
<svg width="62px" height="19px" viewBox="0 0 62 19" version="1.1" xmlns="http://www.w3.org/2000/svg" xmlns:xlink="http://www.w3.org/1999/xlink">
    <!-- Generator: Sketch 55.2 (78181) - https://sketchapp.com -->
    <title>flexbox</title>
    <desc>Created with Sketch.</desc>
    <g id="Page-1" stroke="none" stroke-width="1" fill="none" fill-rule="evenodd">
        <g id="FukkHD-2nd-Copy" transform="translate(-1325.000000, -557.000000)" fill="#FFFFFF" fill-rule="nonzero">
            <path d="M1325.984,558.2 L1332.968,558.2 L1332.968,560.6 L1328.624,560.6 L1328.624,565.28 L1332.032,565.28 L1332.032,567.68 L1328.624,567.68 L1328.624,575 L1325.984,575 L1325.984,558.2 Z M1333.85107,558.2 L1336.49107,558.2 L1336.49107,572.6 L1340.83507,572.6 L1340.83507,575 L1333.85107,575 L1333.85107,558.2 Z M1341.71813,558.2 L1348.91813,558.2 L1348.91813,560.6 L1344.35813,560.6 L1344.35813,565.04 L1347.98213,565.04 L1347.98213,567.44 L1344.35813,567.44 L1344.35813,572.6 L1348.91813,572.6 L1348.91813,575 L1341.71813,575 L1341.71813,558.2 Z M1352.4172,566.408 L1349.5132,558.2 L1352.2972,558.2 L1354.0732,563.624 L1354.1212,563.624 L1355.9452,558.2 L1358.4412,558.2 L1355.5372,566.408 L1358.5852,575 L1355.8012,575 L1353.8812,569.144 L1353.8332,569.144 L1351.8652,575 L1349.3692,575 L1352.4172,566.408 Z M1359.44427,558.2 L1363.42827,558.2 C1364.78828,558.2 1365.78027,558.515997 1366.40427,559.148 C1367.02827,559.780003 1367.34027,560.751993 1367.34027,562.064 L1367.34027,562.736 C1367.34027,563.600004 1367.20027,564.303997 1366.92027,564.848 C1366.64027,565.392003 1366.21227,565.783999 1365.63627,566.024 L1365.63627,566.072 C1366.94828,566.520002 1367.60427,567.687991 1367.60427,569.576 L1367.60427,571.016 C1367.60427,572.312006 1367.26427,573.299997 1366.58427,573.98 C1365.90427,574.660003 1364.90828,575 1363.59627,575 L1359.44427,575 L1359.44427,558.2 Z M1363.11627,565.04 C1363.64427,565.04 1364.04027,564.904001 1364.30427,564.632 C1364.56827,564.359999 1364.70027,563.904003 1364.70027,563.264 L1364.70027,562.328 C1364.70027,561.719997 1364.59227,561.280001 1364.37627,561.008 C1364.16027,560.735999 1363.82027,560.6 1363.35627,560.6 L1362.08427,560.6 L1362.08427,565.04 L1363.11627,565.04 Z M1363.59627,572.6 C1364.06027,572.6 1364.40427,572.476001 1364.62827,572.228 C1364.85227,571.979999 1364.96427,571.552003 1364.96427,570.944 L1364.96427,569.48 C1364.96427,568.711996 1364.83227,568.180001 1364.56827,567.884 C1364.30427,567.587999 1363.86827,567.44 1363.26027,567.44 L1362.08427,567.44 L1362.08427,572.6 L1363.59627,572.6 Z M1372.56734,575.24 C1371.27133,575.24 1370.27934,574.872004 1369.59134,574.136 C1368.90333,573.399996 1368.55934,572.360007 1368.55934,571.016 L1368.55934,562.184 C1368.55934,560.839993 1368.90333,559.800004 1369.59134,559.064 C1370.27934,558.327996 1371.27133,557.96 1372.56734,557.96 C1373.86334,557.96 1374.85533,558.327996 1375.54334,559.064 C1376.23134,559.800004 1376.57534,560.839993 1376.57534,562.184 L1376.57534,571.016 C1376.57534,572.360007 1376.23134,573.399996 1375.54334,574.136 C1374.85533,574.872004 1373.86334,575.24 1372.56734,575.24 Z M1372.56734,572.84 C1373.47934,572.84 1373.93534,572.288006 1373.93534,571.184 L1373.93534,562.016 C1373.93534,560.911994 1373.47934,560.36 1372.56734,560.36 C1371.65533,560.36 1371.19934,560.911994 1371.19934,562.016 L1371.19934,571.184 C1371.19934,572.288006 1371.65533,572.84 1372.56734,572.84 Z M1379.9064,566.408 L1377.0024,558.2 L1379.7864,558.2 L1381.5624,563.624 L1381.6104,563.624 L1383.4344,558.2 L1385.9304,558.2 L1383.0264,566.408 L1386.0744,575 L1383.2904,575 L1381.3704,569.144 L1381.3224,569.144 L1379.3544,575 L1376.8584,575 L1379.9064,566.408 Z" id="flexbox"></path>
        </g>
    </g>
</svg>