<svg xmlns="http://www.w3.org/2000/svg" viewBox="0 0 48 48"><defs><style>.cls-1{fill:#d6001c;}.cls-2{fill:#fefefe;}</style></defs><title>4Asset 1</title><g id="Layer_2" data-name="Layer 2"><g id="Layer_1-2" data-name="Layer 1"><path class="cls-1" d="M24,48A24,24,0,1,0,0,24,24,24,0,0,0,24,48"/><path class="cls-2" d="M13.65,13.17v8.16a5.66,5.66,0,0,1,4.46-2.23,5.49,5.49,0,0,1,2.4.51,4,4,0,0,1,1.62,1.29,4.73,4.73,0,0,1,.74,1.74,16,16,0,0,1,.2,2.95v8.73H19.21V26.46a11.68,11.68,0,0,0-.22-3,2,2,0,0,0-.77-1,2.48,2.48,0,0,0-1.4-.37,3.18,3.18,0,0,0-1.71.47A2.72,2.72,0,0,0,14,24a8.59,8.59,0,0,0-.35,2.84v7.45H9.79V13.17h3.86m15.21,0v8.16a5.66,5.66,0,0,1,4.46-2.23,5.52,5.52,0,0,1,2.4.51,3.94,3.94,0,0,1,1.61,1.29,4.58,4.58,0,0,1,.75,1.74,16.19,16.19,0,0,1,.19,2.95v8.73H34.42V26.46a12.19,12.19,0,0,0-.22-3,1.93,1.93,0,0,0-.78-1A2.44,2.44,0,0,0,32,22.12a3.22,3.22,0,0,0-1.72.47A2.75,2.75,0,0,0,29.21,24a8.59,8.59,0,0,0-.35,2.84v7.45H25V13.17h3.86"/></g></g></svg>