<?xml version="1.0" encoding="UTF-8"?>
<svg width="68px" height="96px" viewBox="0 0 68 96" version="1.1" xmlns="http://www.w3.org/2000/svg" xmlns:xlink="http://www.w3.org/1999/xlink">
    <!-- Generator: Sketch 55.2 (78181) - https://sketchapp.com -->
    <title>html-5</title>
    <desc>Created with Sketch.</desc>
    <g id="Page-1" stroke="none" stroke-width="1" fill="none" fill-rule="evenodd">
        <g id="FukkHD-2nd-Copy" transform="translate(-772.000000, -674.000000)" fill-rule="nonzero">
            <g id="html-5" transform="translate(772.000000, 674.000000)">
                <g id="Group" transform="translate(4.320000, 0.000000)" fill="#FFFFFF">
                    <path d="M1.99958574,0.000184615385 C0.897559396,0.000184615385 0.0041155287,0.881907692 0.0041155287,1.96947692 L0.0041155287,9.84646154 C0.0041155287,10.9340308 0.897559396,11.8157538 1.99958574,11.8157538 C3.10161208,11.8157538 3.99505595,10.9340308 3.99505595,9.84646154 L3.99505595,1.96929231 C3.99505595,0.881723077 3.10161208,0.000184615385 1.99958574,0.000184615385 Z" id="Path"></path>
                    <path d="M9.98109245,7.87698462 L1.99939867,7.87698462 C0.897372326,7.87698462 0.00392845921,6.99526154 0.00392845921,5.90769231 C0.00392845921,4.82012308 0.897372326,3.9384 1.99939867,3.9384 L9.98109245,3.9384 C11.0831188,3.9384 11.9765627,4.82012308 11.9765627,5.90769231 C11.9765627,6.99526154 11.0833059,7.87698462 9.98109245,7.87698462 Z" id="Path"></path>
                    <path d="M9.98109245,11.8155692 C8.8790661,11.8155692 7.98562224,10.9338462 7.98562224,9.84627692 L7.98562224,1.96929231 C7.98562224,0.881723077 8.8790661,0 9.98109245,0 C11.0831188,0 11.9765627,0.881723077 11.9765627,1.96929231 L11.9765627,9.84627692 C11.9765627,10.9338462 11.0833059,11.8155692 9.98109245,11.8155692 Z" id="Path"></path>
                    <path d="M25.94448,3.93858462 L17.9627862,3.93858462 C16.8607599,3.93858462 15.967316,3.05686154 15.967316,1.96929231 C15.967316,0.881723077 16.8607599,0 17.9627862,0 L25.94448,0 C27.0465063,0 27.9399502,0.881723077 27.9399502,1.96929231 C27.9399502,3.05686154 27.0465063,3.93858462 25.94448,3.93858462 Z" id="Path"></path>
                    <path d="M21.9535396,11.8155692 C20.8515132,11.8155692 19.9580694,10.9338462 19.9580694,9.84627692 L19.9580694,1.96929231 C19.9580694,0.881723077 20.8515132,0 21.9535396,0 C23.0555659,0 23.9490098,0.881723077 23.9490098,1.96929231 L23.9490098,9.84627692 C23.9490098,10.9338462 23.055753,11.8155692 21.9535396,11.8155692 Z" id="Path"></path>
                    <path d="M45.8984338,11.8155692 C44.7964075,11.8155692 43.9029636,10.9338462 43.9029636,9.84627692 L43.9029636,7.87698462 L41.5084742,11.0278154 C40.7830187,11.8979077 39.4802668,12.0228923 38.5986083,11.3069538 C38.495346,11.2231385 38.4006888,11.1297231 38.3157593,11.0278154 L35.9212698,7.87698462 L35.9212698,9.84627692 C35.9212698,10.9338462 35.027826,11.8155692 33.9257996,11.8155692 C32.8237733,11.8155692 31.9303294,10.9338462 31.9303294,9.84627692 L31.9303294,1.96929231 C31.9303294,0.881723077 32.8237733,-5.43010845e-05 33.9257996,-5.43010845e-05 C34.5537919,-5.43010845e-05 35.1453056,0.291876923 35.5220636,0.787753846 L39.9120232,6.5616 L44.3019828,0.787753846 C44.9632735,-0.0823384615 46.2140201,-0.258646154 47.0954915,0.393969231 C47.5979601,0.765784615 47.893717,1.34953846 47.893717,1.96929231 L47.893717,9.84627692 C47.893904,10.9338462 47.0006473,11.8155692 45.8984338,11.8155692 Z" id="Path"></path>
                    <path d="M59.8663512,11.8155692 L53.8801276,11.8155692 C52.7781013,11.8155692 51.8846574,10.9338462 51.8846574,9.84627692 L51.8846574,1.96929231 C51.8846574,0.881723077 52.7781013,0 53.8801276,0 C54.982154,0 55.8755978,0.881723077 55.8755978,1.96929231 L55.8755978,7.87698462 L59.8663512,7.87698462 C60.9683775,7.87698462 61.8618214,8.75870769 61.8618214,9.84627692 C61.8618214,10.9338462 60.9683775,11.8155692 59.8663512,11.8155692 Z" id="Path"></path>
                </g>
                <path d="M67.1620417,20.8147013 C66.7851264,20.3980178 66.2501679,20.16 65.6892732,20.16 L1.99917483,20.16 C0.899962999,20.1551551 0.00488251543,21.0446537 0,22.1468911 C0,22.2125651 0.00264341478,22.2780519 0.00880094156,22.3433517 L5.979736,86.2085673 C6.05679838,87.0279015 6.62739587,87.7157006 7.41667884,87.9409753 L35.2809803,95.9241975 C35.4608547,95.9754643 35.6472598,96.0009106 35.8342247,96 C36.0476856,96 36.260027,95.9661091 36.4632254,95.900248 L60.3469657,87.9170259 C61.0961314,87.6670532 61.6269849,86.996842 61.7003154,86.2085673 L67.6712505,22.3433517 C67.7236827,21.7846552 67.5387703,21.2297009 67.1620417,20.8147013 Z" id="Path" fill="#FF5722"></path>
                <path d="M36.282052,80.16 C36.097745,80.1588437 35.9143698,80.1317458 35.7373307,80.0796198 L21.8228044,76.0651686 C21.1398063,75.8688965 20.6124162,75.3194099 20.4392906,74.6238954 L18.4514213,66.5948047 C18.1610772,65.5257522 18.7840684,64.4213218 19.8427621,64.1281368 C20.9014558,63.8349519 21.9951846,64.4640387 22.2855287,65.5330913 C22.2937284,65.5630119 22.3009963,65.5929326 22.3077052,65.6232296 L24.0171573,72.5281309 L36.2382582,76.0529369 L46.3602346,72.6446145 L47.9981257,56.072701 L18.3917871,56.072701 C17.3847142,56.0807927 16.5308268,55.3271305 16.4039177,54.3182956 L14.4160484,38.2603026 C14.2777716,37.1605767 15.0483574,36.1558818 16.1374273,36.0160638 C16.2257605,36.004773 16.3148391,35.9993158 16.4037314,36 L54.1721307,36 C55.2699593,36 56.16,36.8988178 56.16,38.0073882 C56.16,39.1159586 55.2699593,40.0147079 54.1721307,40.0147079 L18.6541776,40.0147079 L20.145033,52.0582497 L50.1967647,52.0582497 C51.2945934,52.0526043 52.1889202,52.9468373 52.194511,54.0554077 C52.1948837,54.1257872 52.1915292,54.1961666 52.184634,54.2661697 L50.1967647,74.3388021 C50.1196129,75.1259605 49.5920365,75.7940007 48.8490314,76.0450333 L36.9221881,80.0594845 C36.7153319,80.1270413 36.4993442,80.1611019 36.282052,80.16 Z" id="Path" fill="#FFFFFF"></path>
            </g>
        </g>
    </g>
</svg>