<?xml version="1.0" encoding="UTF-8"?>
<svg width="89px" height="96px" viewBox="0 0 89 96" version="1.1" xmlns="http://www.w3.org/2000/svg" xmlns:xlink="http://www.w3.org/1999/xlink">
    <!-- Generator: Sketch 55.2 (78181) - https://sketchapp.com -->
    <title>java-script</title>
    <desc>Created with Sketch.</desc>
    <g id="Page-1" stroke="none" stroke-width="1" fill="none" fill-rule="evenodd">
        <g id="FukkHD-2nd-Copy" transform="translate(-1406.000000, -688.000000)" fill="#FFD100" fill-rule="nonzero">
            <g id="java-script" transform="translate(1406.000000, 688.000000)">
                <path d="M87.662625,0.8000625 C87.2625,0.3999375 86.8625625,0 86.0626875,0 L2.0625,0 C1.6625625,0 0.8626875,0.3999375 0.4625625,0.8000625 C0.0626249999,1.2001875 0.0626249999,1.600125 0.0626249999,2.4 L8.0626875,82.4000625 C8.0626875,83.200125 8.86275,84 9.2625,84 L45.2625,96 L46.0625625,96 L46.862625,96 L78.8625,84 C79.6625625,83.6000625 80.0623125,83.1999375 80.0623125,82.4000625 L88.0623969,2.4 C88.0623969,2.00025 88.0623969,1.2 87.662625,0.8000625 L87.662625,0.8000625 Z M44.0626875,72.400125 C44.0626875,72.8000625 43.6625625,73.600125 43.262625,74.0000625 C42.8626875,74.4 42.4389375,74.4530625 42.0391875,74.4530625 L41.662875,74.4 L27.6628125,70.4000625 C26.86275,70.000125 26.463,69.6 26.062875,68.800125 L24.0628125,58.8 C23.662875,57.6001875 24.46275,56.7999375 25.66275,56.4 C26.8625625,56.0000625 27.6628125,56.7999375 28.0629375,57.9999375 L29.662875,66.799875 L40.0629375,69.6 L40.0629375,24.400125 L18.062625,24.400125 C16.8628125,24.400125 16.0625625,23.6000625 16.0625625,22.4000625 C16.0625625,21.20025 16.862625,20.4 18.062625,20.4 L42.062625,20.4 C43.2624375,20.4 44.0626875,21.2000625 44.0626875,22.4000625 L44.0626875,72.400125 Z M72.062625,22.8 L70.0625625,30.8000625 C69.662625,31.999875 68.8471875,32.592375 67.6625625,32.4 C66.4141875,32.1975 65.9360625,31.1934375 66.062625,29.9998125 C66.213375,28.5759375 67.2624375,24.3999375 67.2624375,24.3999375 L51.6624375,24.3999375 L51.6624375,44.4 L65.6625,44.4 C66.0624375,44.4 66.8623125,44.7999375 67.2624375,45.2000625 C67.662375,45.6 67.662375,46.399875 67.662375,46.8 L63.6624375,68.7999375 C63.6624375,69.6 62.862375,69.99975 62.462625,70.399875 L50.462625,74.3998125 C50.0626875,74.3998125 48.609375,74.9529375 47.6625,73.2 C47.2625625,72.0001875 48.0624375,71.1999375 48.8623125,70.7998125 L59.6623125,67.1998125 L62.862375,48.7996875 L49.26225,48.7996875 C48.0624375,48.7996875 47.2621875,47.999625 47.2621875,46.799625 L47.2621875,22.799625 C47.2621875,21.5998125 48.06225,20.7995625 49.26225,20.7995625 L69.2623125,20.7995625 C70.062375,20.7995625 70.609875,20.9705625 71.132625,21.187125 C72.2416875,21.6466875 72.062625,22.4000625 72.062625,22.8 L72.062625,22.8 Z" id="Shape"></path>
            </g>
        </g>
    </g>
</svg>