<svg xmlns="http://www.w3.org/2000/svg" viewBox="0 0 112.2 112.2"><defs><style>.cls-1{fill:#fff;}.cls-2{fill:#007ab9;}.cls-3{fill:#f1f2f2;}</style></defs><title>4Asset 1</title><g id="Layer_2" data-name="Layer 2"><g id="Capa_1" data-name="Capa 1"><circle class="cls-1" cx="56.1" cy="56.1" r="50.98"/><circle class="cls-2" cx="56.1" cy="56.1" r="56.1"/><path class="cls-3" d="M89.62,60.61V83.74H76.21V62.16c0-5.42-1.94-9.12-6.79-9.12A7.33,7.33,0,0,0,62.54,58a9.24,9.24,0,0,0-.45,3.27V83.74H48.68s.18-36.55,0-40.33H62.09v5.71c0,.05-.06.09-.08.14h.08v-.14a13.34,13.34,0,0,1,12.09-6.66c8.82,0,15.44,5.77,15.44,18.15ZM34.66,24c-4.59,0-7.59,3-7.59,7s2.91,7,7.41,7h.09c4.67,0,7.58-3.1,7.58-7s-2.91-7-7.49-7Zm-6.8,59.77H41.27V43.41H27.86Z"/></g></g></svg>