<svg xmlns="http://www.w3.org/2000/svg" viewBox="0 0 393.21 355.82"><defs><style>.cls-1{fill:#fdb300;}.cls-2{fill:#ea6c00;}.cls-3{fill:#fdad00;}.cls-4{fill:#fdd231;}.cls-5{fill:#feeeb7;}</style></defs><title>4Asset 1</title><g id="Layer_2" data-name="Layer 2"><g id="Layer_1-2" data-name="Layer 1"><path class="cls-1" d="M85.79,11.72,196.6,0,307.42,11.72l85.79,115.16L196.6,355.82,0,126.88Z"/><polygon class="cls-2" points="79.63 126.88 196.6 355.82 0 126.88 79.63 126.88"/><polygon class="cls-2" points="313.57 126.88 196.6 355.82 393.2 126.88 313.57 126.88"/><polygon class="cls-3" points="79.63 126.88 313.57 126.88 196.6 355.82 79.63 126.88"/><polygon class="cls-4" points="196.6 0 85.79 11.71 79.63 126.88 196.6 0"/><polygon class="cls-4" points="196.6 0 307.42 11.71 313.57 126.88 196.6 0"/><polygon class="cls-3" points="393.21 126.88 307.42 11.71 313.57 126.88 393.21 126.88"/><polygon class="cls-3" points="0 126.88 85.79 11.71 79.63 126.88 0 126.88"/><polygon class="cls-5" points="196.6 0 79.63 126.88 313.57 126.88 196.6 0"/></g></g></svg>