<?xml version="1.0" encoding="UTF-8"?>
<svg width="177px" height="19px" viewBox="0 0 177 19" version="1.1" xmlns="http://www.w3.org/2000/svg" xmlns:xlink="http://www.w3.org/1999/xlink">
    <!-- Generator: Sketch 55.2 (78181) - https://sketchapp.com -->
    <title>Singlepageapplication</title>
    <desc>Created with Sketch.</desc>
    <g id="Page-1" stroke="none" stroke-width="1" fill="none" fill-rule="evenodd">
        <g id="FukkHD-2nd-Copy" transform="translate(-1494.000000, -425.000000)" fill="#FFFFFF" fill-rule="nonzero">
            <path d="M1498.416,443.24 C1497.13599,443.24 1496.168,442.876004 1495.512,442.148 C1494.856,441.419996 1494.528,440.376007 1494.528,439.016 L1494.528,438.056 L1497.024,438.056 L1497.024,439.208 C1497.024,440.296005 1497.48,440.84 1498.392,440.84 C1498.84,440.84 1499.18,440.708001 1499.412,440.444 C1499.644,440.179999 1499.76,439.752003 1499.76,439.16 C1499.76,438.455996 1499.6,437.836003 1499.28,437.3 C1498.96,436.763997 1498.368,436.120004 1497.504,435.368 C1496.41599,434.407995 1495.656,433.540004 1495.224,432.764 C1494.792,431.987996 1494.576,431.112005 1494.576,430.136 C1494.576,428.807993 1494.912,427.780004 1495.584,427.052 C1496.256,426.323996 1497.23199,425.96 1498.512,425.96 C1499.77601,425.96 1500.732,426.323996 1501.38,427.052 C1502.028,427.780004 1502.352,428.823993 1502.352,430.184 L1502.352,430.88 L1499.856,430.88 L1499.856,430.016 C1499.856,429.439997 1499.744,429.020001 1499.52,428.756 C1499.296,428.491999 1498.968,428.36 1498.536,428.36 C1497.656,428.36 1497.216,428.895995 1497.216,429.968 C1497.216,430.576003 1497.38,431.143997 1497.708,431.672 C1498.036,432.200003 1498.632,432.839996 1499.496,433.592 C1500.60001,434.552005 1501.36,435.423996 1501.776,436.208 C1502.192,436.992004 1502.4,437.911995 1502.4,438.968 C1502.4,440.344007 1502.06,441.399996 1501.38,442.136 C1500.7,442.872004 1499.71201,443.24 1498.416,443.24 Z M1503.52307,426.2 L1506.16307,426.2 L1506.16307,443 L1503.52307,443 L1503.52307,426.2 Z M1507.74213,426.2 L1511.05413,426.2 L1513.62213,436.256 L1513.67013,436.256 L1513.67013,426.2 L1516.02213,426.2 L1516.02213,443 L1513.31013,443 L1510.14213,430.736 L1510.09413,430.736 L1510.09413,443 L1507.74213,443 L1507.74213,426.2 Z M1521.3452,443.24 C1520.0652,443.24 1519.08921,442.876004 1518.4172,442.148 C1517.7452,441.419996 1517.4092,440.376007 1517.4092,439.016 L1517.4092,430.184 C1517.4092,428.823993 1517.7452,427.780004 1518.4172,427.052 C1519.08921,426.323996 1520.0652,425.96 1521.3452,425.96 C1522.62521,425.96 1523.6012,426.323996 1524.2732,427.052 C1524.94521,427.780004 1525.2812,428.823993 1525.2812,430.184 L1525.2812,431.624 L1522.7852,431.624 L1522.7852,430.016 C1522.7852,428.911994 1522.32921,428.36 1521.4172,428.36 C1520.5052,428.36 1520.0492,428.911994 1520.0492,430.016 L1520.0492,439.208 C1520.0492,440.296005 1520.5052,440.84 1521.4172,440.84 C1522.32921,440.84 1522.7852,440.296005 1522.7852,439.208 L1522.7852,435.92 L1521.4652,435.92 L1521.4652,433.52 L1525.2812,433.52 L1525.2812,439.016 C1525.2812,440.376007 1524.94521,441.419996 1524.2732,442.148 C1523.6012,442.876004 1522.62521,443.24 1521.3452,443.24 Z M1526.59627,426.2 L1529.23627,426.2 L1529.23627,440.6 L1533.58027,440.6 L1533.58027,443 L1526.59627,443 L1526.59627,426.2 Z M1534.46334,426.2 L1541.66334,426.2 L1541.66334,428.6 L1537.10334,428.6 L1537.10334,433.04 L1540.72734,433.04 L1540.72734,435.44 L1537.10334,435.44 L1537.10334,440.6 L1541.66334,440.6 L1541.66334,443 L1534.46334,443 L1534.46334,426.2 Z M1546.23747,426.2 L1550.12547,426.2 C1551.43748,426.2 1552.42147,426.551996 1553.07747,427.256 C1553.73348,427.960004 1554.06147,428.991993 1554.06147,430.352 L1554.06147,432.008 C1554.06147,433.368007 1553.73348,434.399996 1553.07747,435.104 C1552.42147,435.808004 1551.43748,436.16 1550.12547,436.16 L1548.87747,436.16 L1548.87747,443 L1546.23747,443 L1546.23747,426.2 Z M1550.12547,433.76 C1550.55747,433.76 1550.88147,433.640001 1551.09747,433.4 C1551.31347,433.159999 1551.42147,432.752003 1551.42147,432.176 L1551.42147,430.184 C1551.42147,429.607997 1551.31347,429.200001 1551.09747,428.96 C1550.88147,428.719999 1550.55747,428.6 1550.12547,428.6 L1548.87747,428.6 L1548.87747,433.76 L1550.12547,433.76 Z M1556.31254,426.2 L1559.88854,426.2 L1562.62454,443 L1559.98454,443 L1559.50454,439.664 L1559.50454,439.712 L1556.50454,439.712 L1556.02454,443 L1553.57654,443 L1556.31254,426.2 Z M1559.19254,437.432 L1558.01654,429.128 L1557.96854,429.128 L1556.81654,437.432 L1559.19254,437.432 Z M1567.20361,443.24 C1565.9236,443.24 1564.94761,442.876004 1564.27561,442.148 C1563.6036,441.419996 1563.26761,440.376007 1563.26761,439.016 L1563.26761,430.184 C1563.26761,428.823993 1563.6036,427.780004 1564.27561,427.052 C1564.94761,426.323996 1565.9236,425.96 1567.20361,425.96 C1568.48361,425.96 1569.4596,426.323996 1570.13161,427.052 C1570.80361,427.780004 1571.13961,428.823993 1571.13961,430.184 L1571.13961,431.624 L1568.64361,431.624 L1568.64361,430.016 C1568.64361,428.911994 1568.18761,428.36 1567.27561,428.36 C1566.3636,428.36 1565.90761,428.911994 1565.90761,430.016 L1565.90761,439.208 C1565.90761,440.296005 1566.3636,440.84 1567.27561,440.84 C1568.18761,440.84 1568.64361,440.296005 1568.64361,439.208 L1568.64361,435.92 L1567.32361,435.92 L1567.32361,433.52 L1571.13961,433.52 L1571.13961,439.016 C1571.13961,440.376007 1570.80361,441.419996 1570.13161,442.148 C1569.4596,442.876004 1568.48361,443.24 1567.20361,443.24 Z M1572.45467,426.2 L1579.65467,426.2 L1579.65467,428.6 L1575.09467,428.6 L1575.09467,433.04 L1578.71867,433.04 L1578.71867,435.44 L1575.09467,435.44 L1575.09467,440.6 L1579.65467,440.6 L1579.65467,443 L1572.45467,443 L1572.45467,426.2 Z M1586.26881,426.2 L1589.84481,426.2 L1592.58081,443 L1589.94081,443 L1589.46081,439.664 L1589.46081,439.712 L1586.46081,439.712 L1585.98081,443 L1583.53281,443 L1586.26881,426.2 Z M1589.14881,437.432 L1587.97281,429.128 L1587.92481,429.128 L1586.77281,437.432 L1589.14881,437.432 Z M1593.46388,426.2 L1597.35188,426.2 C1598.66388,426.2 1599.64787,426.551996 1600.30388,427.256 C1600.95988,427.960004 1601.28788,428.991993 1601.28788,430.352 L1601.28788,432.008 C1601.28788,433.368007 1600.95988,434.399996 1600.30388,435.104 C1599.64787,435.808004 1598.66388,436.16 1597.35188,436.16 L1596.10388,436.16 L1596.10388,443 L1593.46388,443 L1593.46388,426.2 Z M1597.35188,433.76 C1597.78388,433.76 1598.10788,433.640001 1598.32388,433.4 C1598.53988,433.159999 1598.64788,432.752003 1598.64788,432.176 L1598.64788,430.184 C1598.64788,429.607997 1598.53988,429.200001 1598.32388,428.96 C1598.10788,428.719999 1597.78388,428.6 1597.35188,428.6 L1596.10388,428.6 L1596.10388,433.76 L1597.35188,433.76 Z M1602.33894,426.2 L1606.22694,426.2 C1607.53895,426.2 1608.52294,426.551996 1609.17894,427.256 C1609.83495,427.960004 1610.16294,428.991993 1610.16294,430.352 L1610.16294,432.008 C1610.16294,433.368007 1609.83495,434.399996 1609.17894,435.104 C1608.52294,435.808004 1607.53895,436.16 1606.22694,436.16 L1604.97894,436.16 L1604.97894,443 L1602.33894,443 L1602.33894,426.2 Z M1606.22694,433.76 C1606.65895,433.76 1606.98294,433.640001 1607.19894,433.4 C1607.41494,433.159999 1607.52294,432.752003 1607.52294,432.176 L1607.52294,430.184 C1607.52294,429.607997 1607.41494,429.200001 1607.19894,428.96 C1606.98294,428.719999 1606.65895,428.6 1606.22694,428.6 L1604.97894,428.6 L1604.97894,433.76 L1606.22694,433.76 Z M1611.21401,426.2 L1613.85401,426.2 L1613.85401,440.6 L1618.19801,440.6 L1618.19801,443 L1611.21401,443 L1611.21401,426.2 Z M1619.08108,426.2 L1621.72108,426.2 L1621.72108,443 L1619.08108,443 L1619.08108,426.2 Z M1627.02015,443.24 C1625.75614,443.24 1624.79215,442.880004 1624.12815,442.16 C1623.46414,441.439996 1623.13215,440.424007 1623.13215,439.112 L1623.13215,430.088 C1623.13215,428.775993 1623.46414,427.760004 1624.12815,427.04 C1624.79215,426.319996 1625.75614,425.96 1627.02015,425.96 C1628.28415,425.96 1629.24814,426.319996 1629.91215,427.04 C1630.57615,427.760004 1630.90815,428.775993 1630.90815,430.088 L1630.90815,431.864 L1628.41215,431.864 L1628.41215,429.92 C1628.41215,428.879995 1627.97215,428.36 1627.09215,428.36 C1626.21214,428.36 1625.77215,428.879995 1625.77215,429.92 L1625.77215,439.304 C1625.77215,440.328005 1626.21214,440.84 1627.09215,440.84 C1627.97215,440.84 1628.41215,440.328005 1628.41215,439.304 L1628.41215,436.736 L1630.90815,436.736 L1630.90815,439.112 C1630.90815,440.424007 1630.57615,441.439996 1629.91215,442.16 C1629.24814,442.880004 1628.28415,443.24 1627.02015,443.24 Z M1634.14321,426.2 L1637.71921,426.2 L1640.45521,443 L1637.81521,443 L1637.33521,439.664 L1637.33521,439.712 L1634.33521,439.712 L1633.85521,443 L1631.40721,443 L1634.14321,426.2 Z M1637.02321,437.432 L1635.84721,429.128 L1635.79921,429.128 L1634.64721,437.432 L1637.02321,437.432 Z M1642.29828,428.6 L1639.53828,428.6 L1639.53828,426.2 L1647.69828,426.2 L1647.69828,428.6 L1644.93828,428.6 L1644.93828,443 L1642.29828,443 L1642.29828,428.6 Z M1648.58135,426.2 L1651.22135,426.2 L1651.22135,443 L1648.58135,443 L1648.58135,426.2 Z M1656.61642,443.24 C1655.32041,443.24 1654.32842,442.872004 1653.64042,442.136 C1652.95241,441.399996 1652.60842,440.360007 1652.60842,439.016 L1652.60842,430.184 C1652.60842,428.839993 1652.95241,427.800004 1653.64042,427.064 C1654.32842,426.327996 1655.32041,425.96 1656.61642,425.96 C1657.91242,425.96 1658.90441,426.327996 1659.59242,427.064 C1660.28042,427.800004 1660.62442,428.839993 1660.62442,430.184 L1660.62442,439.016 C1660.62442,440.360007 1660.28042,441.399996 1659.59242,442.136 C1658.90441,442.872004 1657.91242,443.24 1656.61642,443.24 Z M1656.61642,440.84 C1657.52842,440.84 1657.98442,440.288006 1657.98442,439.184 L1657.98442,430.016 C1657.98442,428.911994 1657.52842,428.36 1656.61642,428.36 C1655.70441,428.36 1655.24842,428.911994 1655.24842,430.016 L1655.24842,439.184 C1655.24842,440.288006 1655.70441,440.84 1656.61642,440.84 Z M1662.01148,426.2 L1665.32348,426.2 L1667.89148,436.256 L1667.93948,436.256 L1667.93948,426.2 L1670.29148,426.2 L1670.29148,443 L1667.57948,443 L1664.41148,430.736 L1664.36348,430.736 L1664.36348,443 L1662.01148,443 L1662.01148,426.2 Z" id="Singlepageapplication"></path>
        </g>
    </g>
</svg>