<?xml version="1.0" encoding="UTF-8"?>
<svg width="26px" height="19px" viewBox="0 0 26 19" version="1.1" xmlns="http://www.w3.org/2000/svg" xmlns:xlink="http://www.w3.org/1999/xlink">
    <!-- Generator: Sketch 55.2 (78181) - https://sketchapp.com -->
    <title>SVG</title>
    <desc>Created with Sketch.</desc>
    <g id="Page-1" stroke="none" stroke-width="1" fill="none" fill-rule="evenodd">
        <g id="FukkHD-2nd-Copy" transform="translate(-758.000000, -449.000000)" fill="#FFFFFF" fill-rule="nonzero">
            <path d="M762.416,467.24 C761.135994,467.24 760.168003,466.876004 759.512,466.148 C758.855997,465.419996 758.528,464.376007 758.528,463.016 L758.528,462.056 L761.024,462.056 L761.024,463.208 C761.024,464.296005 761.479995,464.84 762.392,464.84 C762.840002,464.84 763.179999,464.708001 763.412,464.444 C763.644001,464.179999 763.76,463.752003 763.76,463.16 C763.76,462.455996 763.600002,461.836003 763.28,461.3 C762.959998,460.763997 762.368004,460.120004 761.504,459.368 C760.415995,458.407995 759.656002,457.540004 759.224,456.764 C758.791998,455.987996 758.576,455.112005 758.576,454.136 C758.576,452.807993 758.911997,451.780004 759.584,451.052 C760.256003,450.323996 761.231994,449.96 762.512,449.96 C763.776006,449.96 764.731997,450.323996 765.38,451.052 C766.028,451.780004 766.352,452.823993 766.352,454.184 L766.352,454.88 L763.856,454.88 L763.856,454.016 C763.856,453.439997 763.744001,453.020001 763.52,452.756 C763.295999,452.491999 762.968002,452.36 762.536,452.36 C761.655996,452.36 761.216,452.895995 761.216,453.968 C761.216,454.576003 761.379998,455.143997 761.708,455.672 C762.036002,456.200003 762.631996,456.839996 763.496,457.592 C764.600006,458.552005 765.359998,459.423996 765.776,460.208 C766.192002,460.992004 766.4,461.911995 766.4,462.968 C766.4,464.344007 766.060003,465.399996 765.38,466.136 C764.699997,466.872004 763.712006,467.24 762.416,467.24 Z M766.827067,450.2 L769.491067,450.2 L771.219067,463.232 L771.267067,463.232 L772.995067,450.2 L775.419067,450.2 L772.875067,467 L769.371067,467 L766.827067,450.2 Z M779.998135,467.24 C778.718128,467.24 777.742138,466.876004 777.070135,466.148 C776.398131,465.419996 776.062135,464.376007 776.062135,463.016 L776.062135,454.184 C776.062135,452.823993 776.398131,451.780004 777.070135,451.052 C777.742138,450.323996 778.718128,449.96 779.998135,449.96 C781.278141,449.96 782.254131,450.323996 782.926135,451.052 C783.598138,451.780004 783.934135,452.823993 783.934135,454.184 L783.934135,455.624 L781.438135,455.624 L781.438135,454.016 C781.438135,452.911994 780.982139,452.36 780.070135,452.36 C779.15813,452.36 778.702135,452.911994 778.702135,454.016 L778.702135,463.208 C778.702135,464.296005 779.15813,464.84 780.070135,464.84 C780.982139,464.84 781.438135,464.296005 781.438135,463.208 L781.438135,459.92 L780.118135,459.92 L780.118135,457.52 L783.934135,457.52 L783.934135,463.016 C783.934135,464.376007 783.598138,465.419996 782.926135,466.148 C782.254131,466.876004 781.278141,467.24 779.998135,467.24 Z" id="SVG"></path>
        </g>
    </g>
</svg>